<?xml version="1.0" standalone="no"?><!DOCTYPE svg PUBLIC "-//W3C//DTD SVG 1.1//EN" "http://www.w3.org/Graphics/SVG/1.1/DTD/svg11.dtd"><svg t="1681110232485" class="icon" viewBox="0 0 1024 1024" version="1.1" xmlns="http://www.w3.org/2000/svg" p-id="24060" xmlns:xlink="http://www.w3.org/1999/xlink" width="32" height="32"><path d="M156.16 616.704s173.4656-82.1248 322.304-34.9696 313.3952 112.1792 313.3952 112.1792-137.728 235.0592-339.712 113.2032-310.2208-184.7808-310.2208-184.7808l14.2336-5.632z" fill="#2c2c2c" p-id="24061" data-spm-anchor-id="a313x.7781069.0.i8" class="selected"></path><path d="M933.6832 353.5872C880.64 274.8416 796.4672 223.0784 683.4176 199.168c0.0512-0.9728 0.1536-1.9456 0.1536-2.9184 0-28.7232-22.6304-52.0192-50.4832-52.0192-25.2928 0-46.1824 19.1488-49.8688 44.1344-165.0176-1.1264-288.9216 75.8272-323.4304 205.7216-18.2272 68.6592-26.88 111.872-32.0512 137.728-1.9968 10.0352-3.9424 19.712-5.4784 25.7024l-128.1024 50.688c-10.24 3.1744-19.968 8.192-29.0816 15.36-45.312 35.6352-48.2304 97.7408-24.8832 137.216 24.4224 41.3184 72.0384 54.4768 121.2928 33.536l22.2208-9.472c67.9424-28.9792 88.2688-37.3248 105.8816-36.5056 1.1264 0.0512 2.2528 0.0512 3.328 0 15.7696 10.2912 31.8464 20.992 48.128 31.744 11.4688 7.5776 23.1424 15.36 35.0208 23.1936 68.0448 46.6432 133.888 70.0928 196.608 70.0928 23.296 0 46.1312-3.2256 68.5056-9.6768 96.1024-27.8016 149.8624-104.7552 171.7248-143.9232 20.0704 3.072 40.3456 4.9152 60.1088 4.9152 34.0992 0 66.7136-5.4784 94.1056-19.6096 7.9872-4.096 13.7216-11.4688 15.8208-20.1728 22.016-92.16 20.6336-227.6352-49.2544-331.3152z m-161.792 294.7584c-47.5648-12.1344-93.0816-29.44-123.4944-43.3152-68.7616-34.9184-139.7248-51.9168-202.9056-59.2384 12.4416-65.8944 58.6752-257.1776 180.48-287.6416 66.6624 21.9136 203.4176 76.3392 145.92 390.1952z m-483.8912-104.448c5.376-26.7776 13.4656-67.2256 31.1808-133.9904 24.9856-94.0544 105.2672-139.2128 193.1264-154.0608-86.784 85.4528-119.3472 232.96-128.512 285.44-37.9904-1.1264-71.0144 0.768-95.8976 3.2768 0-0.2048 0.0512-0.4608 0.1024-0.6656z m-128.4608 184.4224l-22.1184 9.4208c-20.9408 8.9088-35.84 6.0928-44.3904-8.2944-9.6768-16.384-7.9872-43.4688 10.0352-57.6 5.376-4.2496 12.3904-6.1952 20.7872-6.1952 23.1936 0 56.832 14.8992 96.1536 37.4272-16.0768 6.2976-35.5328 14.592-60.4672 25.2416z m464.5888 76.3392c-64.2048 18.5856-136.0384 1.024-213.5552-52.1728l-0.4608-0.3072c-11.9296-7.8848-23.6544-15.616-35.1232-23.2448-62.5664-41.5232-117.2992-77.824-164.9664-100.4544l43.264-17.1008c22.4256-4.1472 204.8512-34.304 367.8208 48.7424 0.4096 0.2048 0.768 0.4096 1.1776 0.5632 17.3568 7.936 67.4304 29.696 127.232 45.6704-24.2688 37.0688-66.4064 81.2544-125.3888 98.304z m302.2336-148.8384c-25.856 8.8576-59.0848 9.1136-94.2592 4.4544 32.9728-180.3776 5.3248-289.1264-39.7312-355.84 37.3248 21.8624 67.584 49.7152 90.368 83.456 66.6624 98.9696 52.48 221.1328 43.6224 267.9296z" fill="#2c2c2c" p-id="24062" data-spm-anchor-id="a313x.7781069.0.i9" class="selected"></path></svg>